<?xml version="1.0" encoding="utf-8"?>
<!-- Generator: Adobe Illustrator 19.0.0, SVG Export Plug-In . SVG Version: 6.00 Build 0)  -->
<svg version="1.1" id="Camada_1" xmlns="http://www.w3.org/2000/svg" xmlns:xlink="http://www.w3.org/1999/xlink" x="0px" y="0px"
	 viewBox="0 0 289.8 505.6" style="enable-background:new 0 0 289.8 505.6;" xml:space="preserve">
<style type="text/css">
	.st0{fill:#C95A31;}
	.st1{fill:#030104;}
</style>
<g>
	<path class="st0" d="M120.4,169.2c11.5-61.8,34.2-92.7,68-92.7c28.3,0,50.7,19.5,67.3,58.5c16.5,39,24.8,91.8,24.8,158.2
		c0,61.9-6.4,112.8-19.1,152.7c-12.7,39.8-28.9,59.8-48.7,59.8c-19.4,0-33.6-22-42.8-65.9c-16.8,42.8-39.3,64.2-67.8,64.2
		c-29.4,0-52.3-18-68.5-54C17.4,414,9.3,363.4,9.3,298.4c0-53.8,6.4-99.2,19.1-136.2c12.7-37.1,28.3-55.6,46.6-55.6
		C92.7,106.6,107.9,127.5,120.4,169.2z M182.4,406c7.2,3.7,13,5.6,17.3,5.6c27.2,0,40.8-38.1,40.8-114.3c0-65.8-8.9-98.7-26.6-98.7
		c-17.4,0-26.1,47.7-26.1,143L182.4,406z M109.8,215.9c-10.3-6-18.6-8.9-25-8.9c-12.5,0-21.3,8-26.3,24.1c-5,16.1-7.5,44.3-7.5,84.8
		c0,53.6,9.2,80.4,27.5,80.4c13.4,0,21.2-19.2,23.5-57.5l2.2-37.2l2.1-53.4L109.8,215.9z"/>
	<path class="st1" d="M0,91.9c0-35.1,28.2-63.3,63.3-63.3c21,0,40.8,12.2,51.1,29.7C127,25.6,160.9,0,198.3,0
		c50.7,0,91.5,41.2,91.5,91.9c0,50.7-40.8,91.5-91.5,91.5c-37.4,0-71.3-25.2-83.9-58c-10.3,17.5-30.1,29.7-51.1,29.7
		C28.2,155.2,0,127,0,91.9z M268.8,91.9c0-38.9-31.6-70.9-70.5-70.9c-38.9,0-70.5,32-70.5,70.9c0,38.9,31.7,70.5,70.5,70.5
		C237.2,162.5,268.8,130.8,268.8,91.9z M106,91.9c0-23.6-19.1-42.7-42.7-42.7c-23.6,0-42.7,19.1-42.7,42.7
		c0,23.6,19.1,42.7,42.7,42.7C86.9,134.6,106,115.5,106,91.9z"/>
</g>
</svg>
